<?xml version="1.0" encoding="utf-8"?>
<!-- Generator: Adobe Illustrator 15.0.0, SVG Export Plug-In . SVG Version: 6.00 Build 0)  -->
<!DOCTYPE svg PUBLIC "-//W3C//DTD SVG 1.1//EN" "http://www.w3.org/Graphics/SVG/1.1/DTD/svg11.dtd">
<svg version="1.1" xmlns="http://www.w3.org/2000/svg" xmlns:xlink="http://www.w3.org/1999/xlink" x="0px" y="0px" width="792px"
	 height="612px" viewBox="0 0 792 612" enable-background="new 0 0 792 612" xml:space="preserve">
<g id="Layer_1">
	<polygon fill="#FFFFFF" stroke="#000000" stroke-miterlimit="10" points="375.572,178.986 490.799,178.986 538.33,243.802 
		509.523,408 440.387,366.23 361.168,403.679 332.362,248.123 	"/>
	<polygon fill="#FFFFFF" stroke="#000000" stroke-miterlimit="10" points="373.411,178.458 433.905,247.402 488.638,178.458 	"/>
	<line fill="#FFFFFF" stroke="#000000" stroke-miterlimit="10" x1="419.987" y1="280.385" x2="451.413" y2="280.385"/>
	<line fill="#FFFFFF" stroke="#000000" stroke-miterlimit="10" x1="436.065" y1="246.682" x2="538.33" y2="246.682"/>
	<g>
		<polygon fill="#FFFFFF" stroke="#000000" stroke-miterlimit="10" points="308.282,112.011 318.344,146.599 375.572,178.671 
			372.742,174.857 334.066,122.702 		"/>
		<line fill="#FFFFFF" stroke="#000000" stroke-miterlimit="10" x1="308.282" y1="112.011" x2="375.257" y2="178.986"/>
	</g>
	<g>
		<polygon fill="#FFFFFF" stroke="#000000" stroke-miterlimit="10" points="557.769,111.25 548.035,145.932 491.116,178.55 
			493.91,174.709 532.086,122.188 		"/>
		<line fill="#FFFFFF" stroke="#000000" stroke-miterlimit="10" x1="557.769" y1="111.25" x2="491.435" y2="178.863"/>
	</g>
	<polygon fill="#FFFFFF" stroke="#000000" stroke-miterlimit="10" points="331.956,247.402 376.081,181.338 432.465,245.962 	"/>
	<polyline fill="#FFFFFF" stroke="#000000" stroke-miterlimit="10" points="436.065,246.682 361.168,403.679 308.282,302.855 
		335.146,262.011 	"/>
	<polyline fill="#FFFFFF" stroke="#000000" stroke-miterlimit="10" points="533.696,274.246 558.089,314.378 511.963,408 
		434.186,246.682 	"/>
	<polygon fill="#FFFFFF" stroke="#000000" stroke-miterlimit="10" points="424.489,281.754 448.202,281.754 436.846,305.232 	"/>
</g>
<g id="Layer_2">
	<line fill="none" stroke="#000000" stroke-miterlimit="10" x1="335.146" y1="262.011" x2="361.168" y2="403.679"/>
	<line fill="none" stroke="#000000" stroke-miterlimit="10" x1="533.696" y1="274.246" x2="511.963" y2="408"/>
</g>
</svg>
