<?xml version="1.0" encoding="utf-8"?>
<!-- Generator: Adobe Illustrator 15.0.0, SVG Export Plug-In . SVG Version: 6.00 Build 0)  -->
<!DOCTYPE svg PUBLIC "-//W3C//DTD SVG 1.1//EN" "http://www.w3.org/Graphics/SVG/1.1/DTD/svg11.dtd">
<svg version="1.1" id="Layer_1" xmlns="http://www.w3.org/2000/svg" xmlns:xlink="http://www.w3.org/1999/xlink" x="0px" y="0px"
	 width="1382.5px" height="612px" viewBox="0 0 1382.5 612" enable-background="new 0 0 1382.5 612" xml:space="preserve">
<path fill="none" stroke="#F8971D" stroke-width="5" stroke-miterlimit="10" d="M243.25,159.083v25c0,0-37.5-28.125-65.625,0
	s4.167,87.5,53.125,70.833v57.292c0,0-98.958,4.167-80.208,66.667c0,0-60.417,42.708-10.417,87.5c0,0,18.75,77.084,89.583,29.167
	c0,0,142.708,118.749,265.625-14.584c0,0,61.459,4.168,57.292-26.041c0,0,35.416-9.376,23.958-42.709c0,0,37.5-38.541-5.208-66.666
	v-81.25c0,0,71.874-52.083,2.083-81.25c0,0-26.042-29.166-50,4.167v-28.125"/>
<polyline fill="none" stroke="#FCEE0F" stroke-width="5" stroke-miterlimit="10" points="1161.088,180.288 1214.852,165.535 
	1215.927,199.944 1306.25,256.933 1235.283,288.117 1297.647,371.986 1201.949,397.793 1211.626,470.912 1132.056,455.857 
	1058.938,552.633 908.4,438.654 832.056,470.912 863.238,345.105 783.669,318.223 863.238,213.922 863.238,181.664 897.647,190.266 
	918.078,159.083 956.787,178.438 "/>
</svg>
